<?xml version="1.0" encoding="UTF-8" standalone="no"?>
<!-- Created with Inkscape (http://www.inkscape.org/) -->

<svg
   width="187.40549mm"
   height="56.353088mm"
   viewBox="0 0 187.40549 56.353087"
   version="1.1"
   id="svg5"
   sodipodi:docname="20210922012 größe 1.svg"
   inkscape:version="1.1 (c68e22c387, 2021-05-23)"
   xmlns:inkscape="http://www.inkscape.org/namespaces/inkscape"
   xmlns:sodipodi="http://sodipodi.sourceforge.net/DTD/sodipodi-0.dtd"
   xmlns="http://www.w3.org/2000/svg"
   xmlns:svg="http://www.w3.org/2000/svg">
  <sodipodi:namedview
     id="namedview7"
     pagecolor="#ffffff"
     bordercolor="#666666"
     borderopacity="1.0"
     inkscape:pageshadow="2"
     inkscape:pageopacity="0.0"
     inkscape:pagecheckerboard="0"
     inkscape:document-units="mm"
     showgrid="true"
     inkscape:lockguides="false"
     inkscape:zoom="2"
     inkscape:cx="262.5"
     inkscape:cy="135.75"
     inkscape:window-width="1920"
     inkscape:window-height="1001"
     inkscape:window-x="-9"
     inkscape:window-y="-9"
     inkscape:window-maximized="1"
     inkscape:current-layer="layer10"
     inkscape:snap-to-guides="true"
     inkscape:snap-page="true"
     inkscape:snap-text-baseline="true"
     inkscape:snap-bbox="true"
     inkscape:bbox-paths="true"
     inkscape:bbox-nodes="true"
     inkscape:snap-center="true"
     inkscape:snap-grids="true"
     inkscape:snap-others="true"
     inkscape:object-nodes="true"
     inkscape:snap-nodes="true"
     inkscape:snap-global="true"
     inkscape:snap-bbox-edge-midpoints="true"
     inkscape:snap-bbox-midpoints="true"
     inkscape:object-paths="true"
     inkscape:snap-intersection-paths="true"
     inkscape:snap-smooth-nodes="true"
     inkscape:snap-midpoints="true"
     inkscape:snap-object-midpoints="true">
    <inkscape:grid
       type="xygrid"
       id="grid5034"
       originx="-1.2833695"
       originy="0.039281262" />
  </sodipodi:namedview>
  <defs
     id="defs2">
    <marker
       style="overflow:visible"
       id="Arrow1Lstart"
       refX="0.0"
       refY="0.0"
       orient="auto"
       inkscape:stockid="Arrow1Lstart"
       inkscape:isstock="true">
      <path
         transform="scale(0.8) translate(12.5,0)"
         style="fill-rule:evenodd;fill:context-stroke;stroke:context-stroke;stroke-width:1.0pt"
         d="M 0.0,0.0 L 5.0,-5.0 L -12.5,0.0 L 5.0,5.0 L 0.0,0.0 z "
         id="path88926" />
    </marker>
  </defs>
  <g
     inkscape:groupmode="layer"
     id="layer2"
     inkscape:label="Buch - Einzelteile"
     style="display:inline"
     transform="translate(-1.2833693,0.03928626)">
    <path
       style="display:inline;fill:#5a4a42;fill-opacity:1;stroke:#5a4a42;stroke-width:0.0766904;stroke-opacity:0"
       d="M 1.6258452,1.3229182 V -9.3953369e-4 H 17.369492 33.113141 V 1.3229182 2.6467729 H 17.369492 1.6258452 Z"
       id="path4571" />
    <path
       style="display:inline;fill:#5a4a42;fill-opacity:1;stroke-width:0.0768036"
       d="m 1.5875,27.781248 v -1.322915 h 15.762351 15.76235 v 1.322915 1.322918 H 17.349851 1.5875 Z"
       id="path4649" />
    <path
       style="display:inline;fill:#5a4a42;fill-opacity:1;stroke-width:0.0775256"
       d="M 1.3229167,14.552082 V 13.229166 H 17.382923 33.44293 V 14.552082 15.875 H 17.382923 1.3229167 Z"
       id="path4610" />
    <g
       id="g88920"
       style="stroke:#000000;stroke-opacity:1;paint-order:fill markers stroke">
      <path
         style="fill:#bebebe;fill-opacity:1;stroke:#000000;stroke-width:0;stroke-miterlimit:4;stroke-dasharray:none;stroke-opacity:1;paint-order:fill markers stroke"
         d="M 2.1166672,7.9375012 V 3.9687502 H 17.594792 33.072916 v 3.968751 3.9687478 H 17.594792 2.1166672 Z"
         id="path58512" />
      <path
         id="path2489-0"
         style="display:inline;fill:#bebebe;fill-opacity:1;stroke:#000000;stroke-width:0;stroke-linejoin:miter;stroke-miterlimit:4;stroke-dasharray:none;stroke-opacity:1;paint-order:fill markers stroke"
         d="m 33.073723,11.906224 a 5.3040963,3.969116 4.4171417e-5 0 0 0.128632,-0.0013 5.3040963,3.969116 4.4171417e-5 0 0 0.14151,-0.0043 5.3040963,3.969116 4.4171417e-5 0 0 0.14048,-0.0069 5.3040963,3.969116 4.4171417e-5 0 0 0.140984,-0.0097 5.3040963,3.969116 4.4171417e-5 0 0 0.139958,-0.01281 5.3040963,3.969116 4.4171417e-5 0 0 0.139954,-0.01546 5.3040963,3.969116 4.4171417e-5 0 0 0.138926,-0.0181 5.3040963,3.969116 4.4171417e-5 0 0 0.138418,-0.0212 5.3040963,3.969116 4.4171417e-5 0 0 0.137387,-0.0234 5.3040963,3.969116 4.4171417e-5 0 0 0.13688,-0.02648 5.3040963,3.969116 4.4171417e-5 0 0 0.135844,-0.02915 5.3040963,3.969116 4.4171417e-5 0 0 0.134295,-0.03179 5.3040963,3.969116 4.4171417e-5 0 0 0.133789,-0.03488 5.3040963,3.969116 4.4171417e-5 0 0 0.132247,-0.03711 5.3040963,3.969116 4.4171417e-5 0 0 0.130692,-0.03975 5.3040963,3.969116 4.4171417e-5 0 0 0.129157,-0.04239 5.3040963,3.969116 4.4171417e-5 0 0 0.127619,-0.04505 5.3040963,3.969116 4.4171417e-5 0 0 0.126584,-0.04725 5.3040963,3.969116 4.4171417e-5 0 0 0.124002,-0.04989 5.3040963,3.969116 4.4171417e-5 0 0 0.122987,-0.05256 5.3040963,3.969116 4.4171417e-5 0 0 0.120402,-0.05477 5.3040963,3.969116 4.4171417e-5 0 0 0.118864,-0.0574 5.3040963,3.969116 4.4171417e-5 0 0 0.116292,-0.05962 5.3040963,3.969116 4.4171417e-5 0 0 0.114742,-0.06181 5.3040963,3.969116 4.4171417e-5 0 0 0.11217,-0.06404 5.3040963,3.969116 4.4171417e-5 0 0 0.1096,-0.06625 5.3040963,3.969116 4.4171417e-5 0 0 0.10754,-0.0689 5.3040963,3.969116 4.4171417e-5 0 0 0.104973,-0.07065 5.3040963,3.969116 4.4171417e-5 0 0 0.102398,-0.07242 5.3040963,3.969116 4.4171417e-5 0 0 0.09984,-0.07464 5.3040963,3.969116 4.4171417e-5 0 0 0.09725,-0.07685 5.3040963,3.969116 4.4171417e-5 0 0 0.09468,-0.07861 5.3040963,3.969116 4.4171417e-5 0 0 0.09107,-0.08038 5.3040963,3.969116 4.4171417e-5 0 0 0.08901,-0.08215 5.3040963,3.969116 4.4171417e-5 0 0 0.08541,-0.08435 5.3040963,3.969116 4.4171417e-5 0 0 0.08286,-0.08523 5.3040963,3.969116 4.4171417e-5 0 0 0.07975,-0.08745 5.3040963,3.969116 4.4171417e-5 0 0 0.07615,-0.08876 5.3040963,3.969116 4.4171417e-5 0 0 0.07358,-0.09054 5.3040963,3.969116 4.4171417e-5 0 0 0.06999,-0.09142 5.3040963,3.969116 4.4171417e-5 0 0 0.06689,-0.0932 5.3040963,3.969116 4.4171417e-5 0 0 0.06329,-0.09451 5.3040963,3.969116 4.4171417e-5 0 0 0.05969,-0.09584 5.3040963,3.969116 4.4171417e-5 0 0 0.05712,-0.0967 5.3040963,3.969116 4.4171417e-5 0 0 0.05301,-0.09759 5.3040963,3.969116 4.4171417e-5 0 0 0.04941,-0.09893 5.3040963,3.969116 4.4171417e-5 0 0 0.04631,-0.09982 5.3040963,3.969116 4.4171417e-5 0 0 0.04271,-0.1011444 5.3040963,3.969116 4.4171417e-5 0 0 0.03861,-0.1015784 5.3040963,3.969116 4.4171417e-5 0 0 0.03551,-0.1020123 5.3040963,3.969116 4.4171417e-5 0 0 0.0314,-0.1029014 5.3040963,3.969116 4.4171417e-5 0 0 0.02831,-0.1037934 5.3040963,3.969116 4.4171417e-5 0 0 0.02419,-0.1042324 5.3040963,3.969116 4.4171417e-5 0 0 0.02057,-0.1042334 5.3040963,3.969116 4.4171417e-5 0 0 0.01698,-0.1051214 5.3040963,3.969116 4.4171417e-5 0 0 0.01292,-0.1051104 5.3040963,3.969116 4.4171417e-5 0 0 0.0098,-0.1055504 5.3040963,3.969116 4.4171417e-5 0 0 0.0057,-0.1055494 5.3040963,3.969116 4.4171417e-5 0 0 0.0015,-0.1055514 5.3040963,3.969116 4.4171417e-5 0 0 -0.0165,-0.3113661 A 5.3040963,3.969116 4.4171417e-5 0 0 38.299214,7.3161719 5.3040963,3.969116 4.4171417e-5 0 0 38.217895,7.0103798 5.3040963,3.969116 4.4171417e-5 0 0 38.104693,6.7104997 5.3040963,3.969116 4.4171417e-5 0 0 37.960584,6.4181266 5.3040963,3.969116 4.4171417e-5 0 0 37.786294,6.1350286 5.3040963,3.969116 4.4171417e-5 0 0 37.583039,5.8634095 5.3040963,3.969116 4.4171417e-5 0 0 37.35149,5.6041626 5.3040963,3.969116 4.4171417e-5 0 0 37.093693,5.3594877 5.3040963,3.969116 4.4171417e-5 0 0 36.811198,5.1307108 5.3040963,3.969116 4.4171417e-5 0 0 36.505038,4.91916 5.3040963,3.969116 4.4171417e-5 0 0 36.178291,4.7261583 5.3040963,3.969116 4.4171417e-5 0 0 35.831993,4.5530297 5.3040963,3.969116 4.4171417e-5 0 0 35.46871,4.4006621 5.3040963,3.969116 4.4171417e-5 0 0 35.090508,4.2703736 5.3040963,3.969116 4.4171417e-5 0 0 34.699441,4.1626062 a 5.3040963,3.969116 4.4171417e-5 0 0 -0.400839,-0.08481 5.3040963,3.969116 4.4171417e-5 0 0 -0.408048,-0.06052 5.3040963,3.969116 4.4171417e-5 0 0 -0.41371,-0.03665 5.3040963,3.969116 4.4171417e-5 0 0 -0.403927,-0.01188 l 2e-6,3.9686878 z" />
    </g>
    <g
       id="g88924">
      <rect
         style="display:inline;fill:#ffab77;fill-opacity:1;stroke:#000000;stroke-width:0;stroke-miterlimit:4;stroke-dasharray:none"
         id="rect6856-1"
         width="30.995537"
         height="7.937501"
         x="2.1166666"
         y="17.197912" />
      <path
         id="path2489-0-8"
         style="display:inline;fill:#ffab77;fill-opacity:1;stroke:#000000;stroke-width:0;stroke-linejoin:miter;stroke-miterlimit:4;stroke-dasharray:none;paint-order:fill markers stroke"
         d="m 33.073717,25.135411 a 5.3041011,3.9691355 4.4172043e-5 0 0 0.128632,-0.0013 5.3041011,3.9691355 4.4172043e-5 0 0 0.141511,-0.0043 5.3041011,3.9691355 4.4172043e-5 0 0 0.14048,-0.0069 5.3041011,3.9691355 4.4172043e-5 0 0 0.140984,-0.0097 5.3041011,3.9691355 4.4172043e-5 0 0 0.139957,-0.01281 5.3041011,3.9691355 4.4172043e-5 0 0 0.139954,-0.01546 5.3041011,3.9691355 4.4172043e-5 0 0 0.138927,-0.0181 5.3041011,3.9691355 4.4172043e-5 0 0 0.138418,-0.0212 5.3041011,3.9691355 4.4172043e-5 0 0 0.137387,-0.0234 5.3041011,3.9691355 4.4172043e-5 0 0 0.136881,-0.02648 5.3041011,3.9691355 4.4172043e-5 0 0 0.135844,-0.02915 5.3041011,3.9691355 4.4172043e-5 0 0 0.134295,-0.03179 5.3041011,3.9691355 4.4172043e-5 0 0 0.133789,-0.03488 5.3041011,3.9691355 4.4172043e-5 0 0 0.132246,-0.03711 5.3041011,3.9691355 4.4172043e-5 0 0 0.130695,-0.03975 5.3041011,3.9691355 4.4172043e-5 0 0 0.129155,-0.04239 5.3041011,3.9691355 4.4172043e-5 0 0 0.127619,-0.04505 5.3041011,3.9691355 4.4172043e-5 0 0 0.126584,-0.04725 5.3041011,3.9691355 4.4172043e-5 0 0 0.124002,-0.04989 5.3041011,3.9691355 4.4172043e-5 0 0 0.122986,-0.05256 5.3041011,3.9691355 4.4172043e-5 0 0 0.120403,-0.05477 5.3041011,3.9691355 4.4172043e-5 0 0 0.118865,-0.0574 5.3041011,3.9691355 4.4172043e-5 0 0 0.116291,-0.05962 5.3041011,3.9691355 4.4172043e-5 0 0 0.114742,-0.06181 5.3041011,3.9691355 4.4172043e-5 0 0 0.11217,-0.06404 5.3041011,3.9691355 4.4172043e-5 0 0 0.109601,-0.06625 5.3041011,3.9691355 4.4172043e-5 0 0 0.107541,-0.0689 5.3041011,3.9691355 4.4172043e-5 0 0 0.104972,-0.07065 5.3041011,3.9691355 4.4172043e-5 0 0 0.102397,-0.07242 5.3041011,3.9691355 4.4172043e-5 0 0 0.09984,-0.07464 5.3041011,3.9691355 4.4172043e-5 0 0 0.09725,-0.07685 5.3041011,3.9691355 4.4172043e-5 0 0 0.09468,-0.07861 5.3041011,3.9691355 4.4172043e-5 0 0 0.09108,-0.08038 5.3041011,3.9691355 4.4172043e-5 0 0 0.08901,-0.08215 5.3041011,3.9691355 4.4172043e-5 0 0 0.08543,-0.08435 5.3041011,3.9691355 4.4172043e-5 0 0 0.08286,-0.08523 5.3041011,3.9691355 4.4172043e-5 0 0 0.07975,-0.08745 5.3041011,3.9691355 4.4172043e-5 0 0 0.07614,-0.08876 5.3041011,3.9691355 4.4172043e-5 0 0 0.07358,-0.09054 5.3041011,3.9691355 4.4172043e-5 0 0 0.06999,-0.09142 5.3041011,3.9691355 4.4172043e-5 0 0 0.06689,-0.0932 5.3041011,3.9691355 4.4172043e-5 0 0 0.06329,-0.09451 5.3041011,3.9691355 4.4172043e-5 0 0 0.05969,-0.09584 5.3041011,3.9691355 4.4172043e-5 0 0 0.05712,-0.0967 5.3041011,3.9691355 4.4172043e-5 0 0 0.05301,-0.09759 5.3041011,3.9691355 4.4172043e-5 0 0 0.04941,-0.09893 5.3041011,3.9691355 4.4172043e-5 0 0 0.04631,-0.09982 5.3041011,3.9691355 4.4172043e-5 0 0 0.04271,-0.101145 5.3041011,3.9691355 4.4172043e-5 0 0 0.03861,-0.101579 5.3041011,3.9691355 4.4172043e-5 0 0 0.03551,-0.102013 5.3041011,3.9691355 4.4172043e-5 0 0 0.0314,-0.102902 5.3041011,3.9691355 4.4172043e-5 0 0 0.02831,-0.103793 5.3041011,3.9691355 4.4172043e-5 0 0 0.02419,-0.104234 5.3041011,3.9691355 4.4172043e-5 0 0 0.02057,-0.104234 5.3041011,3.9691355 4.4172043e-5 0 0 0.01698,-0.105121 5.3041011,3.9691355 4.4172043e-5 0 0 0.01292,-0.105112 5.3041011,3.9691355 4.4172043e-5 0 0 0.0098,-0.105551 5.3041011,3.9691355 4.4172043e-5 0 0 0.0057,-0.105549 5.3041011,3.9691355 4.4172043e-5 0 0 0.0015,-0.105551 5.3041011,3.9691355 4.4172043e-5 0 0 -0.01647,-0.311368 5.3041011,3.9691355 4.4172043e-5 0 0 -0.04888,-0.309599 5.3041011,3.9691355 4.4172043e-5 0 0 -0.08132,-0.305794 5.3041011,3.9691355 4.4172043e-5 0 0 -0.113202,-0.299882 5.3041011,3.9691355 4.4172043e-5 0 0 -0.144109,-0.292373 5.3041011,3.9691355 4.4172043e-5 0 0 -0.17429,-0.2831 5.3041011,3.9691355 4.4172043e-5 0 0 -0.203254,-0.27162 5.3041011,3.9691355 4.4172043e-5 0 0 -0.23155,-0.259248 5.3041011,3.9691355 4.4172043e-5 0 0 -0.257798,-0.244677 5.3041011,3.9691355 4.4172043e-5 0 0 -0.282495,-0.228778 5.3041011,3.9691355 4.4172043e-5 0 0 -0.30616,-0.211552 5.3041011,3.9691355 4.4172043e-5 0 0 -0.326748,-0.193002 5.3041011,3.9691355 4.4172043e-5 0 0 -0.346299,-0.173129 5.3041011,3.9691355 4.4172043e-5 0 0 -0.363282,-0.152369 5.3041011,3.9691355 4.4172043e-5 0 0 -0.378203,-0.13029 5.3041011,3.9691355 4.4172043e-5 0 0 -0.391066,-0.107767 5.3041011,3.9691355 4.4172043e-5 0 0 -0.400841,-0.08481 5.3041011,3.9691355 4.4172043e-5 0 0 -0.408047,-0.06052 5.3041011,3.9691355 4.4172043e-5 0 0 -0.413712,-0.03665 5.3041011,3.9691355 4.4172043e-5 0 0 -0.403926,-0.01188 l 2e-6,3.968708 z" />
    </g>
    <g
       id="g48107"
       style="fill:#ff8244;fill-opacity:1">
      <rect
         style="display:inline;fill:#ff8244;fill-opacity:1;stroke:#000000;stroke-width:0;stroke-miterlimit:4;stroke-dasharray:none"
         id="rect6856-0"
         width="30.956249"
         height="7.9375019"
         x="2.116667"
         y="30.427078" />
      <path
         id="path2489-0-8-8"
         style="display:inline;fill:#ff8244;fill-opacity:1;stroke:#000000;stroke-width:0;stroke-linejoin:miter;stroke-miterlimit:4;stroke-dasharray:none;paint-order:fill markers stroke"
         d="m 33.073693,38.364553 a 5.3435122,3.9691876 4.3043215e-5 0 0 0.129588,-10e-4 5.3435122,3.9691876 4.3043215e-5 0 0 0.142561,-0.004 5.3435122,3.9691876 4.3043215e-5 0 0 0.141524,-0.007 5.3435122,3.9691876 4.3043215e-5 0 0 0.142033,-0.01 5.3435122,3.9691876 4.3043215e-5 0 0 0.140996,-0.0128 5.3435122,3.9691876 4.3043215e-5 0 0 0.140995,-0.0155 5.3435122,3.9691876 4.3043215e-5 0 0 0.139958,-0.0181 5.3435122,3.9691876 4.3043215e-5 0 0 0.139445,-0.0212 5.3435122,3.9691876 4.3043215e-5 0 0 0.138409,-0.0234 5.3435122,3.9691876 4.3043215e-5 0 0 0.137898,-0.0265 5.3435122,3.9691876 4.3043215e-5 0 0 0.136854,-0.0292 5.3435122,3.9691876 4.3043215e-5 0 0 0.135292,-0.0318 5.3435122,3.9691876 4.3043215e-5 0 0 0.134783,-0.0349 5.3435122,3.9691876 4.3043215e-5 0 0 0.13323,-0.0371 5.3435122,3.9691876 4.3043215e-5 0 0 0.131664,-0.0397 5.3435122,3.9691876 4.3043215e-5 0 0 0.130117,-0.0424 5.3435122,3.9691876 4.3043215e-5 0 0 0.128567,-0.0451 5.3435122,3.9691876 4.3043215e-5 0 0 0.127524,-0.0473 5.3435122,3.9691876 4.3043215e-5 0 0 0.124925,-0.0499 5.3435122,3.9691876 4.3043215e-5 0 0 0.1239,-0.0526 5.3435122,3.9691876 4.3043215e-5 0 0 0.121297,-0.0548 5.3435122,3.9691876 4.3043215e-5 0 0 0.119747,-0.0574 5.3435122,3.9691876 4.3043215e-5 0 0 0.117156,-0.0596 5.3435122,3.9691876 4.3043215e-5 0 0 0.115596,-0.0618 5.3435122,3.9691876 4.3043215e-5 0 0 0.113003,-0.064 5.3435122,3.9691876 4.3043215e-5 0 0 0.110414,-0.0663 5.3435122,3.9691876 4.3043215e-5 0 0 0.10834,-0.0689 5.3435122,3.9691876 4.3043215e-5 0 0 0.105748,-0.0707 5.3435122,3.9691876 4.3043215e-5 0 0 0.103159,-0.0724 5.3435122,3.9691876 4.3043215e-5 0 0 0.100582,-0.0746 5.3435122,3.9691876 4.3043215e-5 0 0 0.09797,-0.0768 5.3435122,3.9691876 4.3043215e-5 0 0 0.09538,-0.0786 5.3435122,3.9691876 4.3043215e-5 0 0 0.09176,-0.0804 5.3435122,3.9691876 4.3043215e-5 0 0 0.08967,-0.0821 5.3435122,3.9691876 4.3043215e-5 0 0 0.08606,-0.0844 5.3435122,3.9691876 4.3043215e-5 0 0 0.08347,-0.0852 5.3435122,3.9691876 4.3043215e-5 0 0 0.08034,-0.0875 5.3435122,3.9691876 4.3043215e-5 0 0 0.07672,-0.0888 5.3435122,3.9691876 4.3043215e-5 0 0 0.07413,-0.0905 5.3435122,3.9691876 4.3043215e-5 0 0 0.07051,-0.0914 5.3435122,3.9691876 4.3043215e-5 0 0 0.06739,-0.0932 5.3435122,3.9691876 4.3043215e-5 0 0 0.06375,-0.0945 5.3435122,3.9691876 4.3043215e-5 0 0 0.06013,-0.0958 5.3435122,3.9691876 4.3043215e-5 0 0 0.05754,-0.0967 5.3435122,3.9691876 4.3043215e-5 0 0 0.0534,-0.0976 5.3435122,3.9691876 4.3043215e-5 0 0 0.04978,-0.0989 5.3435122,3.9691876 4.3043215e-5 0 0 0.04665,-0.0998 5.3435122,3.9691876 4.3043215e-5 0 0 0.04302,-0.10114 5.3435122,3.9691876 4.3043215e-5 0 0 0.0389,-0.101591 5.3435122,3.9691876 4.3043215e-5 0 0 0.03577,-0.10201 5.3435122,3.9691876 4.3043215e-5 0 0 0.03163,-0.102901 5.3435122,3.9691876 4.3043215e-5 0 0 0.02852,-0.103796 5.3435122,3.9691876 4.3043215e-5 0 0 0.02437,-0.104233 5.3435122,3.9691876 4.3043215e-5 0 0 0.02072,-0.104236 5.3435122,3.9691876 4.3043215e-5 0 0 0.01711,-0.105124 5.3435122,3.9691876 4.3043215e-5 0 0 0.01302,-0.105111 5.3435122,3.9691876 4.3043215e-5 0 0 0.0099,-0.105553 5.3435122,3.9691876 4.3043215e-5 0 0 0.0057,-0.105551 5.3435122,3.9691876 4.3043215e-5 0 0 0.0015,-0.105553 5.3435122,3.9691876 4.3043215e-5 0 0 -0.01659,-0.311372 5.3435122,3.9691876 4.3043215e-5 0 0 -0.04924,-0.309603 5.3435122,3.9691876 4.3043215e-5 0 0 -0.08192,-0.305798 5.3435122,3.9691876 4.3043215e-5 0 0 -0.113997,-0.299885 5.3435122,3.9691876 4.3043215e-5 0 0 -0.145179,-0.292378 5.3435122,3.9691876 4.3043215e-5 0 0 -0.175586,-0.283104 5.3435122,3.9691876 4.3043215e-5 0 0 -0.204765,-0.271624 5.3435122,3.9691876 4.3043215e-5 0 0 -0.23327,-0.259251 5.3435122,3.9691876 4.3043215e-5 0 0 -0.259713,-0.24468 5.3435122,3.9691876 4.3043215e-5 0 0 -0.284594,-0.22878 5.3435122,3.9691876 4.3043215e-5 0 0 -0.308435,-0.211555 5.3435122,3.9691876 4.3043215e-5 0 0 -0.329175,-0.193006 5.3435122,3.9691876 4.3043215e-5 0 0 -0.348872,-0.173131 5.3435122,3.9691876 4.3043215e-5 0 0 -0.365982,-0.152371 5.3435122,3.9691876 4.3043215e-5 0 0 -0.381013,-0.13029 5.3435122,3.9691876 4.3043215e-5 0 0 -0.393973,-0.107769 5.3435122,3.9691876 4.3043215e-5 0 0 -0.403818,-0.08481 5.3435122,3.9691876 4.3043215e-5 0 0 -0.41108,-0.06052 5.3435122,3.9691876 4.3043215e-5 0 0 -0.416785,-0.03665 5.3435122,3.9691876 4.3043215e-5 0 0 -0.406928,-0.01188 l 2e-6,3.968759 z" />
    </g>
    <text
       xml:space="preserve"
       style="font-style:normal;font-variant:normal;font-weight:normal;font-stretch:normal;font-size:43.7756px;line-height:0;font-family:Calibri;-inkscape-font-specification:Calibri;fill:#5a4a42;fill-opacity:1;stroke-width:0.29847"
       x="45.134884"
       y="40.091984"
       id="text36441"
       transform="scale(0.95866787,1.0431141)"><tspan
         sodipodi:role="line"
         id="tspan36439"
         style="font-style:normal;font-variant:normal;font-weight:normal;font-stretch:normal;font-size:43.7756px;line-height:1.55;font-family:Calibri;-inkscape-font-specification:Calibri;fill:#5a4a42;fill-opacity:1;stroke-width:0.29847"
         x="45.134884"
         y="40.091984"><tspan
           id="tspan185418"
           style="letter-spacing:-1.36086px;stroke-width:0.29847">üffel<tspan
   style="font-size:14.5158px;stroke-width:0.29847"
   id="tspan247620"> </tspan></tspan><tspan
           style="font-style:normal;font-variant:normal;font-weight:bold;font-stretch:normal;line-height:1.55;font-family:Calibri;-inkscape-font-specification:'Calibri Bold';letter-spacing:-0.526428px;fill:#5a4a42;fill-opacity:1;stroke-width:0.29847"
           id="tspan98545">tier</tspan></tspan></text>
    <text
       xml:space="preserve"
       style="font-weight:bold;font-size:31.75px;line-height:1.25;font-family:sans-serif;-inkscape-font-specification:'sans-serif Bold';stroke-width:0.264583"
       x="125.71636"
       y="31.749996"
       id="text80581"><tspan
         sodipodi:role="line"
         id="tspan80579"
         style="stroke-width:0.264583"
         x="125.71636"
         y="31.749996" /></text>
  </g>
  <g
     inkscape:groupmode="layer"
     id="g318135"
     inkscape:label="Buch - Einzelteile Kopie"
     style="display:inline"
     transform="translate(-1.2833693,0.03928626)">
    <path
       id="path1794"
       style="display:inline;fill:#4d4339;fill-opacity:1;stroke:#000000;stroke-width:0;stroke-miterlimit:3.4;stroke-dasharray:none;paint-order:fill markers stroke"
       d="M 33.112201,-1.0083333e-6 V 2.6478987 a 6.6300394,5.2910514 0 0 1 0.504878,0.015505 6.6300394,5.2910514 0 0 1 0.517281,0.049091 6.6300394,5.2910514 0 0 1 0.510048,0.080616 6.6300394,5.2910514 0 0 1 0.501261,0.1131728 6.6300394,5.2910514 0 0 1 0.488857,0.1436582 6.6300394,5.2910514 0 0 1 0.472324,0.1736328 6.6300394,5.2910514 0 0 1 0.454237,0.2030889 6.6300394,5.2910514 0 0 1 0.433048,0.2304785 6.6300394,5.2910514 0 0 1 0.408242,0.257347 6.6300394,5.2910514 0 0 1 0.382923,0.2821543 6.6300394,5.2910514 0 0 1 0.352949,0.30489 6.6300394,5.2910514 0 0 1 0.322461,0.3260778 6.6300394,5.2910514 0 0 1 0.289388,0.3457151 6.6300394,5.2910514 0 0 1 0.253733,0.3622543 6.6300394,5.2910514 0 0 1 0.218075,0.3772376 6.6300394,5.2910514 0 0 1 0.179832,0.3896386 6.6300394,5.2910514 0 0 1 0.141594,0.399976 6.6300394,5.2910514 0 0 1 0.101804,0.4072096 6.6300394,5.2910514 0 0 1 0.06098,0.4128955 6.6300394,5.2910514 0 0 1 0.02067,0.4149619 6.6300394,5.2910514 0 0 1 -0.0016,0.1405599 6.6300394,5.2910514 0 0 1 -0.0072,0.1410758 6.6300394,5.2910514 0 0 1 -0.01241,0.1405599 6.6300394,5.2910514 0 0 1 -0.01601,0.140044 6.6300394,5.2910514 0 0 1 -0.02119,0.1400439 6.6300394,5.2910514 0 0 1 -0.02585,0.1390095 6.6300394,5.2910514 0 0 1 -0.03049,0.1390094 6.6300394,5.2910514 0 0 1 -0.03514,0.1384935 6.6300394,5.2910514 0 0 1 -0.03927,0.1369404 6.6300394,5.2910514 0 0 1 -0.04444,0.1359112 6.6300394,5.2910514 0 0 1 -0.04806,0.1353899 6.6300394,5.2910514 0 0 1 -0.05374,0.1348766 6.6300394,5.2910514 0 0 1 -0.05788,0.1333262 6.6300394,5.2910514 0 0 1 -0.0615,0.1317731 6.6300394,5.2910514 0 0 1 -0.06615,0.1302254 6.6300394,5.2910514 0 0 1 -0.07183,0.1286747 6.6300394,5.2910514 0 0 1 -0.07441,0.128156 6.6300394,5.2910514 0 0 1 -0.07906,0.125574 6.6300394,5.2910514 0 0 1 -0.08372,0.124542 6.6300394,5.2910514 0 0 1 -0.08733,0.121955 6.6300394,5.2910514 0 0 1 -0.09198,0.120406 6.6300394,5.2910514 0 0 1 -0.09509,0.11834 6.6300394,5.2910514 0 0 1 -0.09973,0.116787 6.6300394,5.2910514 0 0 1 -0.10387,0.113689 6.6300394,5.2910514 0 0 1 -0.106452,0.112139 6.6300394,5.2910514 0 0 1 -0.111623,0.109553 6.6300394,5.2910514 0 0 1 -0.113689,0.106971 6.6300394,5.2910514 0 0 1 -0.118337,0.104902 6.6300394,5.2910514 0 0 1 -0.121441,0.10232 6.6300394,5.2910514 0 0 1 -0.125055,0.09973 6.6300394,5.2910514 0 0 1 -0.127641,0.09664 6.6300394,5.2910514 0 0 1 -0.13126,0.09405 6.6300394,5.2910514 0 0 1 -0.134358,0.09198 6.6300394,5.2910514 0 0 1 -0.136943,0.08837 6.6300394,5.2910514 0 0 1 -0.14056,0.08526 6.6300394,5.2910514 0 0 1 -0.143142,0.08217 6.6300394,5.2910514 0 0 1 -0.145727,0.07958 6.6300394,5.2910514 0 0 1 -0.148312,0.07648 6.6300394,5.2910514 0 0 1 -0.150379,0.07338 6.6300394,5.2910514 0 0 1 -0.153995,0.06976 6.6300394,5.2910514 0 0 1 -0.15503,0.06666 6.6300394,5.2910514 0 0 1 -0.158131,0.06305 6.6300394,5.2910514 0 0 1 -0.159679,0.05994 6.6300394,5.2910514 0 0 1 -0.161231,0.05633 6.6300394,5.2910514 0 0 1 -0.163296,0.05323 6.6300394,5.2910514 0 0 1 -0.165365,0.04961 6.6300394,5.2910514 0 0 1 -0.167433,0.04651 6.6300394,5.2910514 0 0 1 -0.167947,0.04238 6.6300394,5.2910514 0 0 1 -0.1695,0.03876 6.6300394,5.2910514 0 0 1 -0.171048,0.03514 6.6300394,5.2910514 0 0 1 -0.172082,0.03153 6.6300394,5.2910514 0 0 1 -0.172601,0.0279 6.6300394,5.2910514 0 0 1 -0.173633,0.02429 6.6300394,5.2910514 0 0 1 -0.175183,0.02066 6.6300394,5.2910514 0 0 1 -0.175181,0.01707 6.6300394,5.2910514 0 0 1 -0.176218,0.01291 6.6300394,5.2910514 0 0 1 -0.175183,0.0093 6.6300394,5.2910514 0 0 1 -0.17725,0.0062 6.6300394,5.2910514 0 0 1 -0.160713,0.0016 l 0.0011,2.646349 A 9.2606195,7.9377587 0 0 0 42.372679,7.9369977 9.2606195,7.9377587 0 0 0 33.112263,1.3691667e-5 Z" />
    <path
       id="path1794-8"
       style="display:inline;fill:#4d4339;fill-opacity:1;stroke:#000000;stroke-width:0;stroke-miterlimit:3.4;stroke-dasharray:none;paint-order:fill markers stroke"
       d="m 33.112253,26.458333 v 2.6478 a 6.6300426,5.2908511 0 0 1 0.504878,0.0155 6.6300426,5.2908511 0 0 1 0.517282,0.04908 6.6300426,5.2908511 0 0 1 0.510047,0.08061 6.6300426,5.2908511 0 0 1 0.501263,0.113168 6.6300426,5.2908511 0 0 1 0.488857,0.143653 6.6300426,5.2908511 0 0 1 0.472323,0.173626 6.6300426,5.2908511 0 0 1 0.454238,0.203082 6.6300426,5.2908511 0 0 1 0.433048,0.230469 6.6300426,5.2908511 0 0 1 0.408242,0.257337 6.6300426,5.2908511 0 0 1 0.382924,0.282143 6.6300426,5.2908511 0 0 1 0.35295,0.304879 6.6300426,5.2908511 0 0 1 0.322461,0.326066 6.6300426,5.2908511 0 0 1 0.289388,0.345702 6.6300426,5.2908511 0 0 1 0.253732,0.36224 6.6300426,5.2908511 0 0 1 0.218075,0.377224 6.6300426,5.2908511 0 0 1 0.179832,0.389624 6.6300426,5.2908511 0 0 1 0.141595,0.399961 6.6300426,5.2908511 0 0 1 0.101803,0.407193 6.6300426,5.2908511 0 0 1 0.06098,0.41288 6.6300426,5.2908511 0 0 1 0.02067,0.414947 6.6300426,5.2908511 0 0 1 -0.0016,0.140555 6.6300426,5.2908511 0 0 1 -0.0072,0.141069 6.6300426,5.2908511 0 0 1 -0.01241,0.140554 6.6300426,5.2908511 0 0 1 -0.01602,0.14004 6.6300426,5.2908511 0 0 1 -0.02119,0.140038 6.6300426,5.2908511 0 0 1 -0.02585,0.139 6.6300426,5.2908511 0 0 1 -0.03049,0.139 6.6300426,5.2908511 0 0 1 -0.03514,0.1385 6.6300426,5.2908511 0 0 1 -0.03927,0.13693 6.6300426,5.2908511 0 0 1 -0.04444,0.13591 6.6300426,5.2908511 0 0 1 -0.04807,0.13538 6.6300426,5.2908511 0 0 1 -0.05374,0.13487 6.6300426,5.2908511 0 0 1 -0.05788,0.13332 6.6300426,5.2908511 0 0 1 -0.06149,0.13176 6.6300426,5.2908511 0 0 1 -0.06615,0.13023 6.6300426,5.2908511 0 0 1 -0.07183,0.12867 6.6300426,5.2908511 0 0 1 -0.07441,0.12815 6.6300426,5.2908511 0 0 1 -0.07908,0.12557 6.6300426,5.2908511 0 0 1 -0.08372,0.12454 6.6300426,5.2908511 0 0 1 -0.08733,0.12195 6.6300426,5.2908511 0 0 1 -0.09199,0.1204 6.6300426,5.2908511 0 0 1 -0.09509,0.11834 6.6300426,5.2908511 0 0 1 -0.09973,0.11677 6.6300426,5.2908511 0 0 1 -0.103871,0.11369 6.6300426,5.2908511 0 0 1 -0.106452,0.11214 6.6300426,5.2908511 0 0 1 -0.111623,0.10954 6.6300426,5.2908511 0 0 1 -0.113688,0.10698 6.6300426,5.2908511 0 0 1 -0.118338,0.1049 6.6300426,5.2908511 0 0 1 -0.121442,0.10231 6.6300426,5.2908511 0 0 1 -0.125055,0.0997 6.6300426,5.2908511 0 0 1 -0.12764,0.0966 6.6300426,5.2908511 0 0 1 -0.131259,0.094 6.6300426,5.2908511 0 0 1 -0.134359,0.092 6.6300426,5.2908511 0 0 1 -0.136943,0.0884 6.6300426,5.2908511 0 0 1 -0.140559,0.0853 6.6300426,5.2908511 0 0 1 -0.143143,0.0822 6.6300426,5.2908511 0 0 1 -0.145726,0.0796 6.6300426,5.2908511 0 0 1 -0.148315,0.0765 6.6300426,5.2908511 0 0 1 -0.150378,0.0734 6.6300426,5.2908511 0 0 1 -0.153995,0.0698 6.6300426,5.2908511 0 0 1 -0.15503,0.0667 6.6300426,5.2908511 0 0 1 -0.158131,0.0631 6.6300426,5.2908511 0 0 1 -0.159678,0.0599 6.6300426,5.2908511 0 0 1 -0.161232,0.0563 6.6300426,5.2908511 0 0 1 -0.163296,0.0532 6.6300426,5.2908511 0 0 1 -0.165365,0.0496 6.6300426,5.2908511 0 0 1 -0.167434,0.0465 6.6300426,5.2908511 0 0 1 -0.167947,0.0423 6.6300426,5.2908511 0 0 1 -0.1695,0.0389 6.6300426,5.2908511 0 0 1 -0.171048,0.035 6.6300426,5.2908511 0 0 1 -0.172082,0.0315 6.6300426,5.2908511 0 0 1 -0.172601,0.0279 6.6300426,5.2908511 0 0 1 -0.173633,0.0243 6.6300426,5.2908511 0 0 1 -0.175183,0.0207 6.6300426,5.2908511 0 0 1 -0.17518,0.0171 6.6300426,5.2908511 0 0 1 -0.176219,0.0129 6.6300426,5.2908511 0 0 1 -0.175184,0.009 6.6300426,5.2908511 0 0 1 -0.177249,0.006 6.6300426,5.2908511 0 0 1 -0.160713,0.002 l 0.0011,2.64625 a 9.260624,7.9374583 0 0 0 9.258303,-7.938311 9.260624,7.9374583 0 0 0 -9.260421,-7.936684 z" />
    <path
       style="display:inline;fill:#4d4339;fill-opacity:1;stroke-width:0.0788834"
       d="m 1.3229167,41.010423 v -1.32292 H 17.991667 34.660416 v 1.32292 1.32291 H 17.991667 1.3229167 Z"
       id="path4688" />
    <path
       style="display:inline;fill:#4d4339;fill-opacity:1;stroke:#5a4a42;stroke-width:0.0790947;stroke-opacity:0"
       d="M 1.3229167,1.3229167 V 2.6108904e-4 H 18.08441 34.845905 V 1.3229167 2.6455692 H 18.08441 1.3229167 Z"
       id="path318095" />
    <path
       style="display:inline;fill:#4d4339;fill-opacity:1;stroke-width:0.0771252"
       d="M 1.3229167,27.781248 V 26.458333 H 17.217559 33.112201 v 1.322915 1.322918 H 17.217559 1.3229167 Z"
       id="path318099" />
    <path
       id="path318115"
       style="display:inline;fill:#4d4339;fill-opacity:1;stroke:#000000;stroke-width:0;stroke-miterlimit:3.4;stroke-dasharray:none;paint-order:fill markers stroke"
       d="M 34.5,-1.0113378e-6 V 2.6478987 a 6.5554177,5.2910514 0 0 1 0.499195,0.015505 6.5554177,5.2910514 0 0 1 0.511459,0.049091 6.5554177,5.2910514 0 0 1 0.504307,0.080616 6.5554177,5.2910514 0 0 1 0.495618,0.1131728 6.5554177,5.2910514 0 0 1 0.483356,0.1436582 6.5554177,5.2910514 0 0 1 0.467008,0.1736328 6.5554177,5.2910514 0 0 1 0.449124,0.2030889 6.5554177,5.2910514 0 0 1 0.428174,0.2304785 6.5554177,5.2910514 0 0 1 0.403648,0.257347 6.5554177,5.2910514 0 0 1 0.378613,0.2821543 6.5554177,5.2910514 0 0 1 0.348976,0.30489 6.5554177,5.2910514 0 0 1 0.318832,0.3260778 6.5554177,5.2910514 0 0 1 0.286131,0.3457151 6.5554177,5.2910514 0 0 1 0.250876,0.3622543 6.5554177,5.2910514 0 0 1 0.215621,0.3772376 6.5554177,5.2910514 0 0 1 0.177808,0.3896386 6.5554177,5.2910514 0 0 1 0.14,0.399976 6.5554177,5.2910514 0 0 1 0.100658,0.4072096 6.5554177,5.2910514 0 0 1 0.06029,0.4128955 6.5554177,5.2910514 0 0 1 0.02044,0.4149619 6.5554177,5.2910514 0 0 1 -0.0016,0.1405599 6.5554177,5.2910514 0 0 1 -0.0071,0.1410758 6.5554177,5.2910514 0 0 1 -0.01227,0.1405599 6.5554177,5.2910514 0 0 1 -0.01583,0.140044 6.5554177,5.2910514 0 0 1 -0.02095,0.1400439 6.5554177,5.2910514 0 0 1 -0.02556,0.1390095 6.5554177,5.2910514 0 0 1 -0.03015,0.1390094 6.5554177,5.2910514 0 0 1 -0.03475,0.1384935 6.5554177,5.2910514 0 0 1 -0.03883,0.1369404 6.5554177,5.2910514 0 0 1 -0.04394,0.1359112 6.5554177,5.2910514 0 0 1 -0.04752,0.1353899 6.5554177,5.2910514 0 0 1 -0.05314,0.1348766 6.5554177,5.2910514 0 0 1 -0.05723,0.1333262 6.5554177,5.2910514 0 0 1 -0.06081,0.1317731 6.5554177,5.2910514 0 0 1 -0.06541,0.1302254 6.5554177,5.2910514 0 0 1 -0.07102,0.1286747 6.5554177,5.2910514 0 0 1 -0.07357,0.128156 6.5554177,5.2910514 0 0 1 -0.07817,0.125574 6.5554177,5.2910514 0 0 1 -0.08278,0.124542 6.5554177,5.2910514 0 0 1 -0.08635,0.121955 6.5554177,5.2910514 0 0 1 -0.09094,0.120406 6.5554177,5.2910514 0 0 1 -0.09402,0.11834 6.5554177,5.2910514 0 0 1 -0.09861,0.116787 6.5554177,5.2910514 0 0 1 -0.102701,0.113689 6.5554177,5.2910514 0 0 1 -0.105254,0.112139 6.5554177,5.2910514 0 0 1 -0.110366,0.109553 6.5554177,5.2910514 0 0 1 -0.11241,0.106971 6.5554177,5.2910514 0 0 1 -0.117005,0.104902 6.5554177,5.2910514 0 0 1 -0.120073,0.10232 6.5554177,5.2910514 0 0 1 -0.123648,0.09973 6.5554177,5.2910514 0 0 1 -0.126204,0.09664 6.5554177,5.2910514 0 0 1 -0.129781,0.09405 6.5554177,5.2910514 0 0 1 -0.132846,0.09198 6.5554177,5.2910514 0 0 1 -0.135402,0.08837 6.5554177,5.2910514 0 0 1 -0.138979,0.08526 6.5554177,5.2910514 0 0 1 -0.14153,0.08217 6.5554177,5.2910514 0 0 1 -0.144087,0.07958 6.5554177,5.2910514 0 0 1 -0.146641,0.07648 6.5554177,5.2910514 0 0 1 -0.148687,0.07338 6.5554177,5.2910514 0 0 1 -0.152263,0.06976 6.5554177,5.2910514 0 0 1 -0.153284,0.06666 6.5554177,5.2910514 0 0 1 -0.156351,0.06305 6.5554177,5.2910514 0 0 1 -0.157881,0.05994 6.5554177,5.2910514 0 0 1 -0.159416,0.05633 6.5554177,5.2910514 0 0 1 -0.161459,0.05323 6.5554177,5.2910514 0 0 1 -0.163504,0.04961 6.5554177,5.2910514 0 0 1 -0.165549,0.04651 6.5554177,5.2910514 0 0 1 -0.166056,0.04238 6.5554177,5.2910514 0 0 1 -0.167593,0.03876 6.5554177,5.2910514 0 0 1 -0.169122,0.03514 6.5554177,5.2910514 0 0 1 -0.170146,0.03153 6.5554177,5.2910514 0 0 1 -0.170658,0.0279 6.5554177,5.2910514 0 0 1 -0.17168,0.02429 6.5554177,5.2910514 0 0 1 -0.17321,0.02066 6.5554177,5.2910514 0 0 1 -0.17321,0.01707 6.5554177,5.2910514 0 0 1 -0.174234,0.01291 6.5554177,5.2910514 0 0 1 -0.173211,0.0093 6.5554177,5.2910514 0 0 1 -0.175255,0.0062 6.5554177,5.2910514 0 0 1 -0.158904,0.0016 l 0.0011,2.646349 A 9.1563904,7.9377587 0 0 0 43.656249,7.9369977 9.1563904,7.9377587 0 0 0 34.500061,1.3688663e-5 Z" />
    <g
       id="g47807"
       style="fill:#4d4339;fill-opacity:1">
      <path
         id="path1794-0"
         style="display:inline;fill:#4d4339;fill-opacity:1;stroke:#000000;stroke-width:0;stroke-miterlimit:3.4;stroke-dasharray:none;paint-order:fill markers stroke"
         d="m 33.112202,13.229167 v 2.647819 a 6.6299949,5.2908907 0 0 1 0.504874,0.01551 6.6299949,5.2908907 0 0 1 0.517278,0.04909 6.6299949,5.2908907 0 0 1 0.510044,0.08062 6.6299949,5.2908907 0 0 1 0.501258,0.11317 6.6299949,5.2908907 0 0 1 0.488854,0.143653 6.6299949,5.2908907 0 0 1 0.472321,0.173628 6.6299949,5.2908907 0 0 1 0.454233,0.203082 6.6299949,5.2908907 0 0 1 0.433046,0.230472 6.6299949,5.2908907 0 0 1 0.408239,0.257339 6.6299949,5.2908907 0 0 1 0.382921,0.282146 6.6299949,5.2908907 0 0 1 0.352947,0.304881 6.6299949,5.2908907 0 0 1 0.322458,0.326068 6.6299949,5.2908907 0 0 1 0.289386,0.345705 6.6299949,5.2908907 0 0 1 0.253732,0.362242 6.6299949,5.2908907 0 0 1 0.218072,0.377227 6.6299949,5.2908907 0 0 1 0.179831,0.389626 6.6299949,5.2908907 0 0 1 0.141594,0.399964 6.6299949,5.2908907 0 0 1 0.101803,0.407198 6.6299949,5.2908907 0 0 1 0.06098,0.412882 6.6299949,5.2908907 0 0 1 0.02067,0.41495 6.6299949,5.2908907 0 0 1 -0.0016,0.140556 6.6299949,5.2908907 0 0 1 -0.0072,0.141071 6.6299949,5.2908907 0 0 1 -0.01241,0.140556 6.6299949,5.2908907 0 0 1 -0.01601,0.14004 6.6299949,5.2908907 0 0 1 -0.02119,0.140039 6.6299949,5.2908907 0 0 1 -0.02585,0.139005 6.6299949,5.2908907 0 0 1 -0.03049,0.139006 6.6299949,5.2908907 0 0 1 -0.03514,0.138488 6.6299949,5.2908907 0 0 1 -0.03927,0.136938 6.6299949,5.2908907 0 0 1 -0.04444,0.135906 6.6299949,5.2908907 0 0 1 -0.04806,0.135386 6.6299949,5.2908907 0 0 1 -0.05373,0.134872 6.6299949,5.2908907 0 0 1 -0.05788,0.133322 6.6299949,5.2908907 0 0 1 -0.0615,0.13177 6.6299949,5.2908907 0 0 1 -0.06614,0.130221 6.6299949,5.2908907 0 0 1 -0.07183,0.128671 6.6299949,5.2908907 0 0 1 -0.07441,0.128153 6.6299949,5.2908907 0 0 1 -0.07906,0.125569 6.6299949,5.2908907 0 0 1 -0.08372,0.124539 6.6299949,5.2908907 0 0 1 -0.08733,0.12195 6.6299949,5.2908907 0 0 1 -0.09198,0.120403 6.6299949,5.2908907 0 0 1 -0.09509,0.118337 6.6299949,5.2908907 0 0 1 -0.09974,0.116783 6.6299949,5.2908907 0 0 1 -0.103871,0.113685 6.6299949,5.2908907 0 0 1 -0.10645,0.112136 6.6299949,5.2908907 0 0 1 -0.111622,0.10955 6.6299949,5.2908907 0 0 1 -0.113688,0.106968 6.6299949,5.2908907 0 0 1 -0.118338,0.104899 6.6299949,5.2908907 0 0 1 -0.121439,0.102316 6.6299949,5.2908907 0 0 1 -0.125054,0.09974 6.6299949,5.2908907 0 0 1 -0.12764,0.09664 6.6299949,5.2908907 0 0 1 -0.131259,0.09405 6.6299949,5.2908907 0 0 1 -0.134357,0.09198 6.6299949,5.2908907 0 0 1 -0.136942,0.08836 6.6299949,5.2908907 0 0 1 -0.140559,0.08526 6.6299949,5.2908907 0 0 1 -0.143142,0.08217 6.6299949,5.2908907 0 0 1 -0.145726,0.07958 6.6299949,5.2908907 0 0 1 -0.148311,0.07647 6.6299949,5.2908907 0 0 1 -0.150378,0.07338 6.6299949,5.2908907 0 0 1 -0.153994,0.06975 6.6299949,5.2908907 0 0 1 -0.155029,0.06666 6.6299949,5.2908907 0 0 1 -0.158129,0.06305 6.6299949,5.2908907 0 0 1 -0.159679,0.05994 6.6299949,5.2908907 0 0 1 -0.16123,0.05633 6.6299949,5.2908907 0 0 1 -0.163294,0.05322 6.6299949,5.2908907 0 0 1 -0.165364,0.04961 6.6299949,5.2908907 0 0 1 -0.167432,0.04651 6.6299949,5.2908907 0 0 1 -0.167946,0.04237 6.6299949,5.2908907 0 0 1 -0.169499,0.03875 6.6299949,5.2908907 0 0 1 -0.171047,0.03514 6.6299949,5.2908907 0 0 1 -0.17208,0.03153 6.6299949,5.2908907 0 0 1 -0.172601,0.0279 6.6299949,5.2908907 0 0 1 -0.173631,0.02429 6.6299949,5.2908907 0 0 1 -0.175183,0.02066 6.6299949,5.2908907 0 0 1 -0.175179,0.01706 6.6299949,5.2908907 0 0 1 -0.176217,0.0129 6.6299949,5.2908907 0 0 1 -0.175182,0.0093 6.6299949,5.2908907 0 0 1 -0.177248,0.0062 6.6299949,5.2908907 0 0 1 -0.160712,0.0016 l 0.0011,2.646269 a 9.2605573,7.9375176 0 0 0 9.258297,-7.938328 9.2605573,7.9375176 0 0 0 -9.260353,-7.936743 z" />
      <path
         style="display:inline;fill:#4d4339;fill-opacity:1;stroke-width:0.0775256"
         d="M 1.3229167,14.552082 V 13.229166 H 17.382923 33.44293 V 14.552082 15.875 H 17.382923 1.3229167 Z"
         id="path318101" />
      <path
         id="path318117"
         style="display:inline;fill:#4d4339;fill-opacity:1;stroke:#000000;stroke-width:0;stroke-miterlimit:3.4;stroke-dasharray:none;paint-order:fill markers stroke"
         d="m 34.5,13.229167 v 2.647819 a 6.5554176,5.2908907 0 0 1 0.499195,0.01551 6.5554176,5.2908907 0 0 1 0.511459,0.04909 6.5554176,5.2908907 0 0 1 0.504307,0.08062 6.5554176,5.2908907 0 0 1 0.49562,0.11317 6.5554176,5.2908907 0 0 1 0.483355,0.143653 6.5554176,5.2908907 0 0 1 0.467009,0.173628 6.5554176,5.2908907 0 0 1 0.449125,0.203082 6.5554176,5.2908907 0 0 1 0.428173,0.230472 6.5554176,5.2908907 0 0 1 0.403647,0.257339 6.5554176,5.2908907 0 0 1 0.378616,0.282146 6.5554176,5.2908907 0 0 1 0.348977,0.304881 6.5554176,5.2908907 0 0 1 0.31883,0.326068 6.5554176,5.2908907 0 0 1 0.286131,0.345705 6.5554176,5.2908907 0 0 1 0.250878,0.362242 6.5554176,5.2908907 0 0 1 0.215618,0.377227 6.5554176,5.2908907 0 0 1 0.177808,0.389626 6.5554176,5.2908907 0 0 1 0.140001,0.399964 6.5554176,5.2908907 0 0 1 0.100657,0.407198 6.5554176,5.2908907 0 0 1 0.06029,0.412882 6.5554176,5.2908907 0 0 1 0.02044,0.41495 6.5554176,5.2908907 0 0 1 -0.0016,0.140556 6.5554176,5.2908907 0 0 1 -0.0071,0.141071 6.5554176,5.2908907 0 0 1 -0.01227,0.140556 6.5554176,5.2908907 0 0 1 -0.01583,0.14004 6.5554176,5.2908907 0 0 1 -0.02095,0.140039 6.5554176,5.2908907 0 0 1 -0.02556,0.139005 6.5554176,5.2908907 0 0 1 -0.03015,0.139006 6.5554176,5.2908907 0 0 1 -0.03474,0.138488 6.5554176,5.2908907 0 0 1 -0.03883,0.136938 6.5554176,5.2908907 0 0 1 -0.04394,0.135906 6.5554176,5.2908907 0 0 1 -0.04752,0.135386 6.5554176,5.2908907 0 0 1 -0.05313,0.134872 6.5554176,5.2908907 0 0 1 -0.05723,0.133322 6.5554176,5.2908907 0 0 1 -0.06081,0.13177 6.5554176,5.2908907 0 0 1 -0.0654,0.130221 6.5554176,5.2908907 0 0 1 -0.07102,0.128671 6.5554176,5.2908907 0 0 1 -0.07357,0.128153 6.5554176,5.2908907 0 0 1 -0.07817,0.125569 6.5554176,5.2908907 0 0 1 -0.08278,0.124539 6.5554176,5.2908907 0 0 1 -0.08635,0.12195 6.5554176,5.2908907 0 0 1 -0.09094,0.120403 6.5554176,5.2908907 0 0 1 -0.09402,0.118337 6.5554176,5.2908907 0 0 1 -0.09862,0.116783 6.5554176,5.2908907 0 0 1 -0.102702,0.113685 6.5554176,5.2908907 0 0 1 -0.105253,0.112136 6.5554176,5.2908907 0 0 1 -0.110366,0.10955 6.5554176,5.2908907 0 0 1 -0.112409,0.106968 6.5554176,5.2908907 0 0 1 -0.117007,0.104899 6.5554176,5.2908907 0 0 1 -0.120074,0.102316 6.5554176,5.2908907 0 0 1 -0.123647,0.09974 6.5554176,5.2908907 0 0 1 -0.126204,0.09664 6.5554176,5.2908907 0 0 1 -0.129782,0.09405 6.5554176,5.2908907 0 0 1 -0.132847,0.09198 6.5554176,5.2908907 0 0 1 -0.135401,0.08836 6.5554176,5.2908907 0 0 1 -0.138979,0.08526 6.5554176,5.2908907 0 0 1 -0.14153,0.08217 6.5554176,5.2908907 0 0 1 -0.144088,0.07958 6.5554176,5.2908907 0 0 1 -0.146643,0.07647 6.5554176,5.2908907 0 0 1 -0.148687,0.07338 6.5554176,5.2908907 0 0 1 -0.152261,0.06975 6.5554176,5.2908907 0 0 1 -0.153285,0.06666 6.5554176,5.2908907 0 0 1 -0.156351,0.06305 6.5554176,5.2908907 0 0 1 -0.157883,0.05994 6.5554176,5.2908907 0 0 1 -0.159416,0.05633 6.5554176,5.2908907 0 0 1 -0.161458,0.05322 6.5554176,5.2908907 0 0 1 -0.163503,0.04961 6.5554176,5.2908907 0 0 1 -0.165548,0.04651 6.5554176,5.2908907 0 0 1 -0.166058,0.04237 6.5554176,5.2908907 0 0 1 -0.167592,0.03875 6.5554176,5.2908907 0 0 1 -0.169123,0.03514 6.5554176,5.2908907 0 0 1 -0.170144,0.03153 6.5554176,5.2908907 0 0 1 -0.170661,0.0279 6.5554176,5.2908907 0 0 1 -0.171678,0.02429 6.5554176,5.2908907 0 0 1 -0.173211,0.02066 6.5554176,5.2908907 0 0 1 -0.173209,0.01706 6.5554176,5.2908907 0 0 1 -0.174235,0.0129 6.5554176,5.2908907 0 0 1 -0.173211,0.0093 6.5554176,5.2908907 0 0 1 -0.175254,0.0062 6.5554176,5.2908907 0 0 1 -0.158903,0.0016 l 0.0011,2.646269 a 9.1563902,7.9375176 0 0 0 9.154154,-7.938328 9.1563902,7.9375176 0 0 0 -9.156188,-7.936743 z" />
    </g>
    <path
       id="path318119"
       style="display:inline;fill:#4d4339;fill-opacity:1;stroke:#000000;stroke-width:0;stroke-miterlimit:3.4;stroke-dasharray:none;paint-order:fill markers stroke"
       d="m 34.500042,26.458333 v 2.6478 a 6.5554598,5.2908511 0 0 1 0.499198,0.0155 6.5554598,5.2908511 0 0 1 0.511463,0.04908 6.5554598,5.2908511 0 0 1 0.504309,0.08061 6.5554598,5.2908511 0 0 1 0.495625,0.113168 6.5554598,5.2908511 0 0 1 0.483357,0.143653 6.5554598,5.2908511 0 0 1 0.46701,0.173626 6.5554598,5.2908511 0 0 1 0.449128,0.203082 6.5554598,5.2908511 0 0 1 0.428177,0.230469 6.5554598,5.2908511 0 0 1 0.403649,0.257337 6.5554598,5.2908511 0 0 1 0.378617,0.282143 6.5554598,5.2908511 0 0 1 0.348979,0.304879 6.5554598,5.2908511 0 0 1 0.318834,0.326066 6.5554598,5.2908511 0 0 1 0.286133,0.345702 6.5554598,5.2908511 0 0 1 0.250877,0.36224 6.5554598,5.2908511 0 0 1 0.215622,0.377224 6.5554598,5.2908511 0 0 1 0.177809,0.389624 6.5554598,5.2908511 0 0 1 0.140002,0.399961 6.5554598,5.2908511 0 0 1 0.100658,0.407193 6.5554598,5.2908511 0 0 1 0.06029,0.41288 6.5554598,5.2908511 0 0 1 0.02044,0.414947 6.5554598,5.2908511 0 0 1 -0.0016,0.140555 6.5554598,5.2908511 0 0 1 -0.0071,0.141069 6.5554598,5.2908511 0 0 1 -0.01227,0.140554 6.5554598,5.2908511 0 0 1 -0.01584,0.14004 6.5554598,5.2908511 0 0 1 -0.02095,0.140038 6.5554598,5.2908511 0 0 1 -0.02556,0.139 6.5554598,5.2908511 0 0 1 -0.03015,0.139 6.5554598,5.2908511 0 0 1 -0.03475,0.1385 6.5554598,5.2908511 0 0 1 -0.03883,0.13693 6.5554598,5.2908511 0 0 1 -0.04394,0.13591 6.5554598,5.2908511 0 0 1 -0.04753,0.13538 6.5554598,5.2908511 0 0 1 -0.05314,0.13487 6.5554598,5.2908511 0 0 1 -0.05723,0.13332 6.5554598,5.2908511 0 0 1 -0.0608,0.13176 6.5554598,5.2908511 0 0 1 -0.06541,0.13023 6.5554598,5.2908511 0 0 1 -0.07102,0.12867 6.5554598,5.2908511 0 0 1 -0.07357,0.12815 6.5554598,5.2908511 0 0 1 -0.07819,0.12557 6.5554598,5.2908511 0 0 1 -0.08278,0.12454 6.5554598,5.2908511 0 0 1 -0.08635,0.12195 6.5554598,5.2908511 0 0 1 -0.09096,0.1204 6.5554598,5.2908511 0 0 1 -0.09402,0.11834 6.5554598,5.2908511 0 0 1 -0.09861,0.11677 6.5554598,5.2908511 0 0 1 -0.102703,0.11369 6.5554598,5.2908511 0 0 1 -0.105254,0.11214 6.5554598,5.2908511 0 0 1 -0.110367,0.10954 6.5554598,5.2908511 0 0 1 -0.112409,0.10698 6.5554598,5.2908511 0 0 1 -0.117007,0.1049 6.5554598,5.2908511 0 0 1 -0.120076,0.10231 6.5554598,5.2908511 0 0 1 -0.123648,0.0997 6.5554598,5.2908511 0 0 1 -0.126205,0.0966 6.5554598,5.2908511 0 0 1 -0.129782,0.094 6.5554598,5.2908511 0 0 1 -0.132848,0.092 6.5554598,5.2908511 0 0 1 -0.135402,0.0884 6.5554598,5.2908511 0 0 1 -0.138978,0.0853 6.5554598,5.2908511 0 0 1 -0.141533,0.0822 6.5554598,5.2908511 0 0 1 -0.144086,0.0796 6.5554598,5.2908511 0 0 1 -0.146647,0.0765 6.5554598,5.2908511 0 0 1 -0.148686,0.0734 6.5554598,5.2908511 0 0 1 -0.152263,0.0698 6.5554598,5.2908511 0 0 1 -0.153286,0.0667 6.5554598,5.2908511 0 0 1 -0.156352,0.0631 6.5554598,5.2908511 0 0 1 -0.157882,0.0599 6.5554598,5.2908511 0 0 1 -0.159418,0.0563 6.5554598,5.2908511 0 0 1 -0.161459,0.0532 6.5554598,5.2908511 0 0 1 -0.163505,0.0496 6.5554598,5.2908511 0 0 1 -0.16555,0.0465 6.5554598,5.2908511 0 0 1 -0.166058,0.0423 6.5554598,5.2908511 0 0 1 -0.167593,0.0389 6.5554598,5.2908511 0 0 1 -0.169124,0.035 6.5554598,5.2908511 0 0 1 -0.170146,0.0315 6.5554598,5.2908511 0 0 1 -0.17066,0.0279 6.5554598,5.2908511 0 0 1 -0.17168,0.0243 6.5554598,5.2908511 0 0 1 -0.173212,0.0207 6.5554598,5.2908511 0 0 1 -0.173209,0.0171 6.5554598,5.2908511 0 0 1 -0.174237,0.0129 6.5554598,5.2908511 0 0 1 -0.173213,0.009 6.5554598,5.2908511 0 0 1 -0.175255,0.006 6.5554598,5.2908511 0 0 1 -0.158905,0.002 l 0.0011,2.64625 a 9.1564492,7.9374583 0 0 0 9.154154,-7.938311 9.1564492,7.9374583 0 0 0 -9.156248,-7.936684 z" />
    <text
       xml:space="preserve"
       style="font-style:normal;font-variant:normal;font-weight:normal;font-stretch:normal;font-size:43.7756px;line-height:0;font-family:Calibri;-inkscape-font-specification:Calibri;fill:#5a4a42;fill-opacity:1;stroke-width:0.29847"
       x="45.134884"
       y="40.091984"
       id="text318129"
       transform="scale(0.95866787,1.0431141)"><tspan
         sodipodi:role="line"
         id="tspan318127"
         style="font-style:normal;font-variant:normal;font-weight:normal;font-stretch:normal;font-size:43.7756px;line-height:1.55;font-family:Calibri;-inkscape-font-specification:Calibri;fill:#4d4339;fill-opacity:1;stroke-width:0.29847"
         x="45.134884"
         y="40.091984"><tspan
           id="tspan318123"
           style="letter-spacing:-1.36086px;fill:#4d4339;fill-opacity:1;stroke-width:0.29847">üffel<tspan
   style="font-size:14.5158px;fill:#4d4339;fill-opacity:1;stroke-width:0.29847"
   id="tspan318121"> </tspan></tspan><tspan
           style="font-style:normal;font-variant:normal;font-weight:bold;font-stretch:normal;line-height:1.55;font-family:Calibri;-inkscape-font-specification:'Calibri Bold';letter-spacing:-0.526428px;fill:#4d4339;fill-opacity:1;stroke-width:0.29847"
           id="tspan318125">tier</tspan></tspan></text>
    <text
       xml:space="preserve"
       style="font-weight:bold;font-size:31.75px;line-height:1.25;font-family:sans-serif;-inkscape-font-specification:'sans-serif Bold';stroke-width:0.264583"
       x="125.71636"
       y="31.749996"
       id="text318133"><tspan
         sodipodi:role="line"
         id="tspan318131"
         style="stroke-width:0.264583"
         x="125.71636"
         y="31.749996" /></text>
  </g>
  <g
     inkscape:groupmode="layer"
     id="layer10"
     inkscape:label="Leitspruch"
     style="display:inline"
     transform="translate(-1.2833693,0.03928626)">
    <text
       xml:space="preserve"
       style="font-size:11.4826px;line-height:1.25;font-family:Calibri;-inkscape-font-specification:Calibri;fill:#5a4a42;fill-opacity:1;stroke-width:0.287065"
       x="97.762863"
       y="50.361237"
       id="text11137"
       transform="matrix(0.93693763,-0.0026573,0.00473179,1.0672935,0,0)"><tspan
         sodipodi:role="line"
         id="tspan11135"
         style="font-style:normal;font-variant:normal;font-weight:normal;font-stretch:normal;font-size:11.4826px;font-family:'Segoe Print';-inkscape-font-specification:'Segoe Print, Normal';font-variant-ligatures:normal;font-variant-caps:normal;font-variant-numeric:normal;font-variant-east-asian:normal;fill:#4d4339;fill-opacity:1;stroke-width:0.287065"
         x="97.762863"
         y="50.361237">leben heißt lernen</tspan></text>
  </g>
</svg>
